<svg width="224" height="193" viewBox="0 0 224 193" fill="none" xmlns="http://www.w3.org/2000/svg">
<path d="M112 138.869C131.146 138.869 146.666 124.011 146.666 105.682C146.666 87.3524 131.146 72.4944 112 72.4944C92.8533 72.4944 77.333 87.3524 77.333 105.682C77.333 124.011 92.8533 138.869 112 138.869Z" stroke="black" stroke-width="15" stroke-linecap="round" stroke-linejoin="round"/>
<path d="M8 149.6V65.525C8 53.1339 8 46.9382 10.519 42.2055C12.7347 38.0423 16.2702 34.6576 20.6189 32.5365C25.5626 30.125 32.0344 30.125 44.9778 30.125H57.1647C58.5854 30.125 59.2957 30.125 59.951 30.0531C63.3703 29.6782 66.437 27.8637 68.3164 25.1036C68.6766 24.5746 68.9944 23.9663 69.6296 22.75C70.9002 20.3172 71.5356 19.1008 72.2561 18.0428C76.0148 12.5226 82.1483 8.89363 88.9871 8.1437C90.2975 8 91.7177 8 94.5592 8H129.441C132.282 8 133.702 8 135.013 8.1437C141.851 8.89363 147.985 12.5226 151.744 18.0428C152.464 19.1007 153.1 20.3175 154.371 22.75C155.005 23.9664 155.323 24.5746 155.683 25.1036C157.564 27.8637 160.629 29.6782 164.049 30.0531C164.705 30.125 165.414 30.125 166.836 30.125H179.022C191.966 30.125 198.438 30.125 203.381 32.5365C207.73 34.6576 211.266 38.0423 213.481 42.2055C216 46.9382 216 53.1339 216 65.525V149.6C216 161.991 216 168.187 213.481 172.92C211.266 177.083 207.73 180.468 203.381 182.588C198.438 185 191.966 185 179.022 185H44.9778C32.0344 185 25.5626 185 20.6189 182.588C16.2702 180.468 12.7347 177.083 10.519 172.92C8 168.187 8 161.991 8 149.6Z" stroke="black" stroke-width="15" stroke-linecap="round" stroke-linejoin="round"/>
</svg>
