<svg width="330" height="290" viewBox="0 0 330 290" fill="none" xmlns="http://www.w3.org/2000/svg">
<path d="M145.224 290C122.243 289.993 99.5911 284.544 79.1298 274.1C58.6685 263.656 40.9816 248.516 27.522 229.923C14.0624 211.33 5.21416 189.815 1.70427 167.146C-1.80561 144.476 0.122968 121.299 7.33158 99.5175C14.5402 77.7365 26.8231 57.9733 43.1713 41.8515C59.5195 25.7297 79.4665 13.7094 101.374 6.77809C123.281 -0.153265 146.523 -1.79787 169.19 1.97936C191.858 5.7566 213.304 14.8479 231.768 28.5064C234.239 30.5106 235.84 33.3891 236.237 36.5424C236.635 39.6956 235.798 42.8803 233.902 45.4333C232.006 47.9862 229.196 49.7104 226.057 50.2468C222.919 50.7833 219.694 50.0905 217.055 48.3128C195.263 32.1633 168.65 23.8233 141.52 24.6414C114.391 25.4596 88.3305 35.3881 67.5546 52.8213C46.7786 70.2545 32.5015 94.1732 27.032 120.709C21.5626 147.245 25.2206 174.847 37.4145 199.05C49.6085 223.254 69.6253 242.644 94.228 254.086C118.831 265.527 146.581 268.351 172.99 262.1C199.4 255.849 222.925 240.889 239.761 219.639C256.597 198.389 265.759 172.092 265.767 145C265.749 138.655 265.232 132.322 264.221 126.057C263.97 124.437 264.04 122.783 264.429 121.189C264.818 119.596 265.517 118.095 266.487 116.771C267.458 115.448 268.679 114.328 270.083 113.476C271.487 112.623 273.045 112.055 274.668 111.804C276.292 111.553 277.949 111.624 279.545 112.012C281.142 112.4 282.646 113.098 283.972 114.066C285.298 115.034 286.42 116.254 287.274 117.655C288.127 119.056 288.696 120.611 288.948 122.232C290.053 129.77 290.569 137.382 290.493 145C290.461 183.446 275.145 220.309 247.909 247.494C220.673 274.68 183.742 289.967 145.224 290Z" fill="#0074FF"/>
<path d="M160.679 191.277C157.405 191.263 154.27 189.954 151.962 187.636L93.2365 129.019C91.2111 126.658 90.1527 123.622 90.2729 120.516C90.3931 117.41 91.683 114.464 93.8848 112.266C96.0867 110.068 99.0383 108.781 102.15 108.661C105.261 108.541 108.304 109.597 110.669 111.619L160.679 161.474L309.595 12.8957C311.96 10.874 315.002 9.81758 318.114 9.93755C321.226 10.0575 324.177 11.345 326.379 13.5428C328.581 15.7405 329.871 18.6867 329.991 21.7925C330.111 24.8983 329.053 27.9349 327.027 30.2957L169.395 187.636C167.087 189.954 163.952 191.263 160.679 191.277Z" fill="#FFB300"/>
</svg>
