<svg width="28" height="27" viewBox="0 0 28 27" fill="none" xmlns="http://www.w3.org/2000/svg">
<path d="M24.875 22.875C24.875 23.4406 24.3889 23.9375 23.75 23.9375H4.25C3.61114 23.9375 3.125 23.4406 3.125 22.875V4.125C3.125 3.55943 3.61114 3.0625 4.25 3.0625H23.75C24.3889 3.0625 24.875 3.55943 24.875 4.125V22.875ZM23.75 0.5H4.25C2.19779 0.5 0.5 2.10391 0.5 4.125V22.875C0.5 24.8961 2.19779 26.5 4.25 26.5H23.75C25.8022 26.5 27.5 24.8961 27.5 22.875V4.125C27.5 2.10391 25.8022 0.5 23.75 0.5ZM18.875 12.2188H15.3125V8.8125C15.3125 8.08901 14.7066 7.53125 14 7.53125C13.2934 7.53125 12.6875 8.08901 12.6875 8.8125V12.2188H9.125C8.41836 12.2188 7.8125 12.7765 7.8125 13.5C7.8125 14.2235 8.41836 14.7812 9.125 14.7812H12.6875V18.1875C12.6875 18.911 13.2934 19.4688 14 19.4688C14.7066 19.4688 15.3125 18.911 15.3125 18.1875V14.7812H18.875C19.5816 14.7812 20.1875 14.2235 20.1875 13.5C20.1875 12.7765 19.5816 12.2188 18.875 12.2188Z" fill="black" stroke="black"/>
</svg>
