<svg width="93" height="87" viewBox="0 0 93 87" fill="none" xmlns="http://www.w3.org/2000/svg">
<path fill-rule="evenodd" clip-rule="evenodd" d="M87.1875 76.125C87.1875 79.1156 84.5835 81.5625 81.375 81.5625H11.625C8.4165 81.5625 5.8125 79.1156 5.8125 76.125V10.875C5.8125 7.88438 8.4165 5.4375 11.625 5.4375H81.375C84.5835 5.4375 87.1875 7.88438 87.1875 10.875V76.125ZM81.375 0H11.625C5.20509 0 0 4.86656 0 10.875V76.125C0 82.1334 5.20509 87 11.625 87H81.375C87.7949 87 93 82.1334 93 76.125V10.875C93 4.86656 87.7949 0 81.375 0ZM63.9375 40.7812H49.4062V27.1875C49.4062 25.6922 48.1043 24.4688 46.5 24.4688C44.8957 24.4688 43.5938 25.6922 43.5938 27.1875V40.7812H29.0625C27.4583 40.7812 26.1562 42.0047 26.1562 43.5C26.1562 44.9953 27.4583 46.2188 29.0625 46.2188H43.5938V59.8125C43.5938 61.3078 44.8957 62.5312 46.5 62.5312C48.1043 62.5312 49.4062 61.3078 49.4062 59.8125V46.2188H63.9375C65.5417 46.2188 66.8438 44.9953 66.8438 43.5C66.8438 42.0047 65.5417 40.7812 63.9375 40.7812Z" fill="white"/>
</svg>
